<?xml version="1.0" encoding="UTF-8" standalone="no"?><!-- Created with Inkscape (http://www.inkscape.org/) --><svg id="svg4213" xmlns:rdf="http://www.w3.org/1999/02/22-rdf-syntax-ns#" xmlns="http://www.w3.org/2000/svg" height="175" width="175" version="1.1" xmlns:cc="http://creativecommons.org/ns#" xmlns:xlink="http://www.w3.org/1999/xlink" viewBox="0 0 175 175" xmlns:dc="http://purl.org/dc/elements/1.1/"><defs id="defs4215"><radialGradient id="radialGradient4278" gradientUnits="userSpaceOnUse" cy="359.26" cx="270.96" gradientTransform="matrix(.90155 .90155 -.96673 .96672 184.56 419.48)" r="49.643"><stop id="stop4272" stop-color="#321700" stop-opacity=".91373" offset="0"/><stop id="stop4274" stop-opacity="0" offset="1"/></radialGradient><filter id="filter4361" style="color-interpolation-filters:sRGB" height="1.0054" width="1.0043" y="-.0026841" x="-.0021703"><feGaussianBlur id="feGaussianBlur4363" stdDeviation="0.08978125"/></filter><radialGradient id="radialGradient4438" gradientUnits="userSpaceOnUse" cy="391.14" cx="227.19" gradientTransform="matrix(.93319 .54277 -2.1653 3.7228 723.43 -607.62)" r="49.643"><stop id="stop4432" stop-color="#fff" offset="0"/><stop id="stop4434" stop-color="#ffd000" stop-opacity="0" offset="1"/></radialGradient><linearGradient id="linearGradient4205" y2="425.91" gradientUnits="userSpaceOnUse" x2="233.54" gradientTransform="translate(-160 585)" y1="360.17" x1="248.57"><stop id="stop4201" stop-color="#ffac00" offset="0"/><stop id="stop4203" stop-color="#fff0b6" offset="1"/></linearGradient><filter id="filter4392" style="color-interpolation-filters:sRGB" height="1.1396" width="1.1129" y="-.069787" x="-.056427"><feGaussianBlur id="feGaussianBlur4394" stdDeviation="2.3343125"/></filter><radialGradient id="radialGradient4448" gradientUnits="userSpaceOnUse" cy="340.41" cx="251.07" gradientTransform="matrix(1.5647 0 0 1.0309 -304.28 570.74)" r="60.714"><stop id="stop4444" stop-color="#d668ff" offset="0"/><stop id="stop4446" stop-color="#c77fff" stop-opacity="0" offset="1"/></radialGradient><linearGradient id="linearGradient4146" y2="312.72" gradientUnits="userSpaceOnUse" x2="301.43" gradientTransform="translate(-160 585)" y1="452.01" x1="199.29"><stop id="stop4142" stop-color="#222" offset="0"/><stop id="stop4144" stop-color="#3c2780" offset="1"/></linearGradient></defs><metadata id="metadata4218"><rdf:RDF><cc:Work rdf:about=""><dc:format>image/svg+xml</dc:format><dc:type rdf:resource="http://purl.org/dc/dcmitype/StillImage"/><dc:title/></cc:Work></rdf:RDF></metadata><g id="layer1" transform="translate(0 -877.36)"><ellipse id="path4138" style="color-rendering:auto;color:#000000;isolation:auto;mix-blend-mode:normal;shape-rendering:auto;solid-color:#000000;image-rendering:auto" rx="87.5" cy="964.86" ry="87.5" cx="87.5" fill="url(#linearGradient4146)"/><path id="path4440" opacity=".831" style="color-rendering:auto;color:#000000;isolation:auto;mix-blend-mode:normal;shape-rendering:auto;solid-color:#000000;image-rendering:auto" d="m87.5 877.36a87.5 87.5 0 0 0 -85.641 69.664 95 62.588 0 0 0 0.006 0.008 95 62.588 0 0 0 4.2246 5.5117 95 62.588 0 0 0 0.11524 0.13281 95 62.588 0 0 0 4.8848 5.0508 95 62.588 0 0 0 0.35547 0.32811 95 62.588 0 0 0 5.4238 4.5312 95 62.588 0 0 0 0.57227 0.42969 95 62.588 0 0 0 5.8652 4.0058 95 62.588 0 0 0 0.92578 0.56836 95 62.588 0 0 0 6.1445 3.4316 95 62.588 0 0 0 1.291 0.64648 95 62.588 0 0 0 6.3164 2.8672 95 62.588 0 0 0 1.7617 0.71289 95 62.588 0 0 0 6.3027 2.2852 95 62.588 0 0 0 2.3047 0.73437 95 62.588 0 0 0 6.1777 1.7363 95 62.588 0 0 0 2.8164 0.67772 95 62.588 0 0 0 6.0215 1.2402 95 62.588 0 0 0 3.3144 0.55858 95 62.588 0 0 0 5.6953 0.77344 95 62.588 0 0 0 3.9238 0.39062 95 62.588 0 0 0 5.2324 0.35743 95 62.588 0 0 0 7.0371 0.23242 95 62.588 0 0 0 8.248 -0.2793 95 62.588 0 0 0 4.0176 -0.32031 95 62.588 0 0 0 5.5586 -0.5586 95 62.588 0 0 0 3.3809 -0.5 95 62.588 0 0 0 6.0098 -1.0176 95 62.588 0 0 0 2.7188 -0.59571 95 62.588 0 0 0 6.4082 -1.5488 95 62.588 0 0 0 2.0352 -0.59961 95 62.588 0 0 0 6.6856 -2.1348 95 62.588 0 0 0 1.4726 -0.55468 95 62.588 0 0 0 6.7715 -2.7441 95 62.588 0 0 0 0.9707 -0.45703 95 62.588 0 0 0 6.7266 -3.3789 95 62.588 0 0 0 0.51367 -0.29883 95 62.588 0 0 0 6.5137 -4.0058 95 62.588 0 0 0 0.23828 -0.16992 95 62.588 0 0 0 6.0976 -4.5859 95 62.588 0 0 0 10.654 -11.086 87.5 87.5 0 0 0 -86.094 -72.039z" fill="url(#radialGradient4448)"/><path id="rect4148-2" style="color-rendering:auto;color:#000000;isolation:auto;mix-blend-mode:normal;shape-rendering:auto;solid-color:#000000;image-rendering:auto" d="m208.36 350.93c-4.432 0-8 3.568-8 8v42.928c0 4.432 3.568 8 8 8h19.793v21.35l21.35-21.35h42.143c4.432 0 8-3.568 8-8v-42.928c0-4.432-3.568-8-8-8h-83.285z" fill-opacity=".59302" transform="matrix(1.0089 0 0 1.0089 -164.72 579.78)" filter="url(#filter4392)"/><path id="rect4148" style="color-rendering:auto;color:#000000;isolation:auto;mix-blend-mode:normal;shape-rendering:auto;solid-color:#000000;image-rendering:auto" d="m45.857 932.17c-4.432 0-8 3.568-8 8v42.928c0 4.432 3.568 8 8 8h19.793v21.35l21.35-21.35h42.143c4.432 0 8-3.568 8-8v-42.928c0-4.432-3.568-8-8-8h-83.285z" fill="url(#linearGradient4205)"/><path id="rect4148-6" style="color-rendering:auto;color:#000000;isolation:auto;mix-blend-mode:normal;shape-rendering:auto;solid-color:#000000;image-rendering:auto" d="m45.857 932.17c-4.432 0-8 3.568-8 8v42.928c0 4.432 3.568 8 8 8h19.793v21.35l21.35-21.35h42.143c4.432 0 8-3.568 8-8v-42.928c0-4.432-3.568-8-8-8h-83.285z" fill="url(#radialGradient4438)"/><path id="rect4148-1" opacity="0.604" style="color-rendering:auto;color:#000000;isolation:auto;mix-blend-mode:normal;shape-rendering:auto;solid-color:#000000;image-rendering:auto" d="m45.623 932.64c-4.432 0-8 3.568-8 8v42.928c0 4.432 3.568 8 8 8h19.793v21.35l21.35-21.35h42.143c4.432 0 8-3.568 8-8v-42.928c0-4.432-3.568-8-8-8zm2.4082 2.3222h78.469c4.1757 0 7.5371 3.3614 7.5371 7.5371v40.445c0 4.1757-3.3615 6.5166-7.5371 6.534h-39.705l-19.783 19.356v-19.356h-18.98c-4.1757 0-7.5371-2.3584-7.5371-6.534v-40.445c0-4.1757 3.3614-7.5371 7.5371-7.5371z" filter="url(#filter4361)" fill="url(#radialGradient4278)"/></g></svg>